<?xml version="1.0" encoding="UTF-8" standalone="no"?>
<!DOCTYPE svg PUBLIC "-//W3C//DTD SVG 1.1//EN"
 "http://www.w3.org/Graphics/SVG/1.1/DTD/svg11.dtd">
<!-- Generated by graphviz version 9.0.0 (20230911.1827)
 -->
<!-- Pages: 1 -->
<svg width="355pt" height="356pt"
 viewBox="0.00 0.00 355.49 355.72" xmlns="http://www.w3.org/2000/svg" xmlns:xlink="http://www.w3.org/1999/xlink">
<g id="graph0" class="graph" transform="scale(1 1) rotate(0) translate(4 351.72)">
<polygon fill="white" stroke="none" points="-4,4 -4,-351.72 351.49,-351.72 351.49,4 -4,4"/>
<!-- 3 -->
<g id="node1" class="node">
<title>3</title>
<ellipse fill="none" stroke="black" cx="181.86" cy="-167.83" rx="18" ry="18"/>
<text text-anchor="middle" x="181.86" y="-162.41" font-family="Times New Roman,serif" font-size="14.00">3</text>
</g>
<!-- 16 -->
<g id="node3" class="node">
<title>16</title>
<ellipse fill="none" stroke="black" cx="265.81" cy="-153.9" rx="19.63" ry="19.63"/>
<text text-anchor="middle" x="265.81" y="-148.47" font-family="Times New Roman,serif" font-size="14.00">16</text>
</g>
<!-- 3&#45;&gt;16 -->
<g id="edge3" class="edge">
<title>3&#45;&gt;16</title>
<path fill="none" stroke="black" d="M200.07,-164.81C210.27,-163.12 223.27,-160.96 235,-159.01"/>
<polygon fill="black" stroke="black" points="235.38,-162.5 244.67,-157.41 234.24,-155.59 235.38,-162.5"/>
<text text-anchor="middle" x="227.66" y="-164.81" font-family="Times New Roman,serif" font-size="8.00">34.86</text>
</g>
<!-- 18 -->
<g id="node4" class="node">
<title>18</title>
<ellipse fill="none" stroke="black" cx="97.5" cy="-177.8" rx="19.63" ry="19.63"/>
<text text-anchor="middle" x="97.5" y="-172.37" font-family="Times New Roman,serif" font-size="14.00">18</text>
</g>
<!-- 3&#45;&gt;18 -->
<g id="edge1" class="edge">
<title>3&#45;&gt;18</title>
<path fill="none" stroke="black" d="M163.55,-170C153.3,-171.21 140.25,-172.75 128.46,-174.14"/>
<polygon fill="black" stroke="black" points="128.26,-170.64 118.74,-175.29 129.09,-177.59 128.26,-170.64"/>
<text text-anchor="middle" x="135.88" y="-174.97" font-family="Times New Roman,serif" font-size="8.00">30.95</text>
</g>
<!-- 21 -->
<g id="node6" class="node">
<title>21</title>
<ellipse fill="none" stroke="black" cx="203.31" cy="-85.49" rx="19.63" ry="19.63"/>
<text text-anchor="middle" x="203.31" y="-80.06" font-family="Times New Roman,serif" font-size="14.00">21</text>
</g>
<!-- 3&#45;&gt;21 -->
<g id="edge2" class="edge">
<title>3&#45;&gt;21</title>
<path fill="none" stroke="black" d="M186.51,-149.97C189.12,-139.96 192.44,-127.22 195.44,-115.71"/>
<polygon fill="black" stroke="black" points="198.78,-116.78 197.91,-106.22 192,-115.02 198.78,-116.78"/>
<text text-anchor="middle" x="180.85" y="-135.74" font-family="Times New Roman,serif" font-size="8.00">46.86</text>
</g>
<!-- 49 -->
<g id="node2" class="node">
<title>49</title>
<ellipse fill="none" stroke="black" cx="251.23" cy="-213.27" rx="19.63" ry="19.63"/>
<text text-anchor="middle" x="251.23" y="-207.84" font-family="Times New Roman,serif" font-size="14.00">49</text>
</g>
<!-- 49&#45;&gt;3 -->
<g id="edge4" class="edge">
<title>49&#45;&gt;3</title>
<path fill="none" stroke="black" d="M234.44,-202.27C226.07,-196.79 215.8,-190.06 206.56,-184.01"/>
<polygon fill="black" stroke="black" points="208.63,-181.18 198.34,-178.63 204.79,-187.04 208.63,-181.18"/>
<text text-anchor="middle" x="212.62" y="-196.04" font-family="Times New Roman,serif" font-size="8.00">32.4</text>
</g>
<!-- 39 -->
<g id="node11" class="node">
<title>39</title>
<ellipse fill="none" stroke="black" cx="327.86" cy="-197.78" rx="19.63" ry="19.63"/>
<text text-anchor="middle" x="327.86" y="-192.36" font-family="Times New Roman,serif" font-size="14.00">39</text>
</g>
<!-- 49&#45;&gt;39 -->
<g id="edge5" class="edge">
<title>49&#45;&gt;39</title>
<path fill="none" stroke="black" d="M270.57,-209.36C278.58,-207.74 288.08,-205.82 297.02,-204.02"/>
<polygon fill="black" stroke="black" points="297.67,-207.46 306.78,-202.04 296.29,-200.59 297.67,-207.46"/>
<text text-anchor="middle" x="293.92" y="-209.59" font-family="Times New Roman,serif" font-size="8.00">44.37</text>
</g>
<!-- 38 -->
<g id="node10" class="node">
<title>38</title>
<ellipse fill="none" stroke="black" cx="19.63" cy="-184.22" rx="19.63" ry="19.63"/>
<text text-anchor="middle" x="19.63" y="-178.79" font-family="Times New Roman,serif" font-size="14.00">38</text>
</g>
<!-- 18&#45;&gt;38 -->
<g id="edge6" class="edge">
<title>18&#45;&gt;38</title>
<path fill="none" stroke="black" d="M77.45,-179.45C69.36,-180.12 59.85,-180.9 50.89,-181.64"/>
<polygon fill="black" stroke="black" points="50.8,-178.13 41.12,-182.44 51.38,-185.11 50.8,-178.13"/>
<text text-anchor="middle" x="56.29" y="-183.44" font-family="Times New Roman,serif" font-size="8.00">4.43</text>
</g>
<!-- 20 -->
<g id="node5" class="node">
<title>20</title>
<ellipse fill="none" stroke="black" cx="152.93" cy="-328.09" rx="19.63" ry="19.63"/>
<text text-anchor="middle" x="152.93" y="-322.67" font-family="Times New Roman,serif" font-size="14.00">20</text>
</g>
<!-- 24 -->
<g id="node8" class="node">
<title>24</title>
<ellipse fill="none" stroke="black" cx="164.81" cy="-19.63" rx="19.63" ry="19.63"/>
<text text-anchor="middle" x="164.81" y="-14.2" font-family="Times New Roman,serif" font-size="14.00">24</text>
</g>
<!-- 21&#45;&gt;24 -->
<g id="edge7" class="edge">
<title>21&#45;&gt;24</title>
<path fill="none" stroke="black" d="M193.2,-68.19C189.32,-61.55 184.8,-53.82 180.52,-46.5"/>
<polygon fill="black" stroke="black" points="183.56,-44.76 175.49,-37.9 177.52,-48.29 183.56,-44.76"/>
<text text-anchor="middle" x="176.74" y="-49.74" font-family="Times New Roman,serif" font-size="8.00">15.93</text>
</g>
<!-- 22 -->
<g id="node7" class="node">
<title>22</title>
<ellipse fill="none" stroke="black" cx="164.39" cy="-250.84" rx="19.63" ry="19.63"/>
<text text-anchor="middle" x="164.39" y="-245.41" font-family="Times New Roman,serif" font-size="14.00">22</text>
</g>
<!-- 22&#45;&gt;3 -->
<g id="edge8" class="edge">
<title>22&#45;&gt;3</title>
<path fill="none" stroke="black" d="M168.53,-231.17C170.68,-220.92 173.36,-208.19 175.75,-196.84"/>
<polygon fill="black" stroke="black" points="179.16,-197.65 177.79,-187.15 172.31,-196.21 179.16,-197.65"/>
<text text-anchor="middle" x="162.02" y="-216.9" font-family="Times New Roman,serif" font-size="8.00">35.15</text>
</g>
<!-- 22&#45;&gt;20 -->
<g id="edge9" class="edge">
<title>22&#45;&gt;20</title>
<path fill="none" stroke="black" d="M161.44,-270.73C160.25,-278.75 158.85,-288.2 157.53,-297.08"/>
<polygon fill="black" stroke="black" points="154.1,-296.36 156.09,-306.77 161.02,-297.39 154.1,-296.36"/>
<text text-anchor="middle" x="149.36" y="-286.81" font-family="Times New Roman,serif" font-size="8.00">40.66</text>
</g>
<!-- 31 -->
<g id="node9" class="node">
<title>31</title>
<ellipse fill="none" stroke="black" cx="143.89" cy="-94.32" rx="19.63" ry="19.63"/>
<text text-anchor="middle" x="143.89" y="-88.89" font-family="Times New Roman,serif" font-size="14.00">31</text>
</g>
<!-- 24&#45;&gt;31 -->
<g id="edge10" class="edge">
<title>24&#45;&gt;31</title>
<path fill="none" stroke="black" d="M159.42,-38.86C157.25,-46.62 154.69,-55.74 152.29,-64.33"/>
<polygon fill="black" stroke="black" points="148.99,-63.12 149.67,-73.69 155.73,-65.01 148.99,-63.12"/>
<text text-anchor="middle" x="145.73" y="-54.5" font-family="Times New Roman,serif" font-size="8.00">46.88</text>
</g>
<!-- 31&#45;&gt;3 -->
<g id="edge11" class="edge">
<title>31&#45;&gt;3</title>
<path fill="none" stroke="black" d="M153.08,-112.11C157.66,-120.98 163.28,-131.86 168.34,-141.66"/>
<polygon fill="black" stroke="black" points="165.13,-143.08 172.83,-150.36 171.35,-139.87 165.13,-143.08"/>
<text text-anchor="middle" x="150.58" y="-129.79" font-family="Times New Roman,serif" font-size="8.00">18.08</text>
</g>
<!-- 39&#45;&gt;16 -->
<g id="edge12" class="edge">
<title>39&#45;&gt;16</title>
<path fill="none" stroke="black" d="M311.56,-186.25C305.34,-181.85 298.09,-176.73 291.22,-171.87"/>
<polygon fill="black" stroke="black" points="293.64,-169.29 283.46,-166.38 289.6,-175.01 293.64,-169.29"/>
<text text-anchor="middle" x="291.27" y="-181.96" font-family="Times New Roman,serif" font-size="8.00">30.32</text>
</g>
</g>
</svg>
