<?xml version="1.0" encoding="UTF-8" standalone="no"?>
<!DOCTYPE svg PUBLIC "-//W3C//DTD SVG 1.1//EN"
 "http://www.w3.org/Graphics/SVG/1.1/DTD/svg11.dtd">
<!-- Generated by graphviz version 9.0.0 (20230911.1827)
 -->
<!-- Pages: 1 -->
<svg width="272pt" height="296pt"
 viewBox="0.00 0.00 271.80 296.00" xmlns="http://www.w3.org/2000/svg" xmlns:xlink="http://www.w3.org/1999/xlink">
<g id="graph0" class="graph" transform="scale(1 1) rotate(0) translate(4 292)">
<polygon fill="white" stroke="none" points="-4,4 -4,-292 267.8,-292 267.8,4 -4,4"/>
<!-- root -->
<g id="node1" class="node">
<title>root</title>
<ellipse fill="none" stroke="white" cx="178.4" cy="-273.6" rx="14.4" ry="14.4"/>
<text text-anchor="middle" x="178.4" y="-268.18" font-family="Times New Roman,serif" font-size="14.00">root</text>
</g>
<!-- 34 -->
<g id="node2" class="node">
<title>34</title>
<ellipse fill="black" stroke="black" cx="178.4" cy="-208.8" rx="14.4" ry="14.4"/>
<text text-anchor="middle" x="178.4" y="-203.38" font-family="Times New Roman,serif" font-size="14.00" fill="white">34</text>
</g>
<!-- root&#45;&gt;34 -->
<g id="edge1" class="edge">
<title>root&#45;&gt;34</title>
<path fill="none" stroke="grey" d="M178.4,-258.97C178.4,-251.9 178.4,-243.02 178.4,-234.77"/>
<polygon fill="grey" stroke="grey" points="181.9,-234.91 178.4,-224.91 174.9,-234.91 181.9,-234.91"/>
</g>
<!-- 12 -->
<g id="node3" class="node">
<title>12</title>
<ellipse fill="red" stroke="black" cx="131.4" cy="-144" rx="14.4" ry="14.4"/>
<text text-anchor="middle" x="131.4" y="-138.57" font-family="Times New Roman,serif" font-size="14.00" fill="white">12</text>
</g>
<!-- 34&#45;&gt;12 -->
<g id="edge2" class="edge">
<title>34&#45;&gt;12</title>
<path fill="none" stroke="red" d="M170,-196.57C163.51,-187.91 154.37,-175.7 146.61,-165.33"/>
<polygon fill="red" stroke="red" points="149.43,-163.25 140.64,-157.34 143.83,-167.45 149.43,-163.25"/>
</g>
<!-- 41 -->
<g id="node10" class="node">
<title>41</title>
<ellipse fill="black" stroke="black" cx="202.4" cy="-144" rx="14.4" ry="14.4"/>
<text text-anchor="middle" x="202.4" y="-138.57" font-family="Times New Roman,serif" font-size="14.00" fill="white">41</text>
</g>
<!-- 34&#45;&gt;41 -->
<g id="edge9" class="edge">
<title>34&#45;&gt;41</title>
<path fill="none" stroke="black" d="M183.37,-194.79C186.27,-187.21 190.01,-177.42 193.4,-168.54"/>
<polygon fill="black" stroke="black" points="196.59,-170 196.89,-159.41 190.05,-167.5 196.59,-170"/>
</g>
<!-- 1 -->
<g id="node4" class="node">
<title>1</title>
<ellipse fill="black" stroke="black" cx="61.4" cy="-79.2" rx="14.4" ry="14.4"/>
<text text-anchor="middle" x="61.4" y="-73.78" font-family="Times New Roman,serif" font-size="14.00" fill="white">1</text>
</g>
<!-- 12&#45;&gt;1 -->
<g id="edge3" class="edge">
<title>12&#45;&gt;1</title>
<path fill="none" stroke="black" d="M121.07,-133.73C110.32,-124.09 93.24,-108.77 80.11,-96.98"/>
<polygon fill="black" stroke="black" points="82.68,-94.59 72.9,-90.52 78,-99.8 82.68,-94.59"/>
</g>
<!-- 18 -->
<g id="node7" class="node">
<title>18</title>
<ellipse fill="black" stroke="black" cx="131.4" cy="-79.2" rx="14.4" ry="14.4"/>
<text text-anchor="middle" x="131.4" y="-73.78" font-family="Times New Roman,serif" font-size="14.00" fill="white">18</text>
</g>
<!-- 12&#45;&gt;18 -->
<g id="edge6" class="edge">
<title>12&#45;&gt;18</title>
<path fill="none" stroke="black" d="M131.4,-129.37C131.4,-122.3 131.4,-113.42 131.4,-105.17"/>
<polygon fill="black" stroke="black" points="134.9,-105.31 131.4,-95.31 127.9,-105.31 134.9,-105.31"/>
</g>
<!-- icqqbldtsevzztejkrna -->
<g id="node5" class="node">
<title>icqqbldtsevzztejkrna</title>
<ellipse fill="none" stroke="white" cx="14.4" cy="-14.4" rx="14.4" ry="14.4"/>
</g>
<!-- 1&#45;&gt;icqqbldtsevzztejkrna -->
<g id="edge4" class="edge">
<title>1&#45;&gt;icqqbldtsevzztejkrna</title>
<path fill="none" stroke="black" d="M53,-66.97C46.51,-58.31 37.37,-46.1 29.61,-35.73"/>
<polygon fill="black" stroke="black" points="32.43,-33.65 23.64,-27.74 26.83,-37.85 32.43,-33.65"/>
</g>
<!-- uqwxnzapxnnpvtlsibgv -->
<g id="node6" class="node">
<title>uqwxnzapxnnpvtlsibgv</title>
<ellipse fill="none" stroke="white" cx="61.4" cy="-14.4" rx="14.4" ry="14.4"/>
</g>
<!-- 1&#45;&gt;uqwxnzapxnnpvtlsibgv -->
<g id="edge5" class="edge">
<title>1&#45;&gt;uqwxnzapxnnpvtlsibgv</title>
<path fill="none" stroke="black" d="M61.4,-64.57C61.4,-57.5 61.4,-48.62 61.4,-40.37"/>
<polygon fill="black" stroke="black" points="64.9,-40.51 61.4,-30.51 57.9,-40.51 64.9,-40.51"/>
</g>
<!-- cpsfsnizbmhkqjirgern -->
<g id="node8" class="node">
<title>cpsfsnizbmhkqjirgern</title>
<ellipse fill="none" stroke="white" cx="108.4" cy="-14.4" rx="14.4" ry="14.4"/>
</g>
<!-- 18&#45;&gt;cpsfsnizbmhkqjirgern -->
<g id="edge7" class="edge">
<title>18&#45;&gt;cpsfsnizbmhkqjirgern</title>
<path fill="none" stroke="black" d="M126.63,-65.19C123.86,-57.61 120.28,-47.82 117.02,-38.94"/>
<polygon fill="black" stroke="black" points="120.41,-38 113.68,-29.82 113.83,-40.41 120.41,-38"/>
</g>
<!-- vmyfometbfrfadacfydk -->
<g id="node9" class="node">
<title>vmyfometbfrfadacfydk</title>
<ellipse fill="none" stroke="white" cx="155.4" cy="-14.4" rx="14.4" ry="14.4"/>
</g>
<!-- 18&#45;&gt;vmyfometbfrfadacfydk -->
<g id="edge8" class="edge">
<title>18&#45;&gt;vmyfometbfrfadacfydk</title>
<path fill="none" stroke="black" d="M136.37,-65.19C139.27,-57.61 143.01,-47.82 146.4,-38.94"/>
<polygon fill="black" stroke="black" points="149.59,-40.4 149.89,-29.81 143.05,-37.9 149.59,-40.4"/>
</g>
<!-- 35 -->
<g id="node11" class="node">
<title>35</title>
<ellipse fill="red" stroke="black" cx="202.4" cy="-79.2" rx="14.4" ry="14.4"/>
<text text-anchor="middle" x="202.4" y="-73.78" font-family="Times New Roman,serif" font-size="14.00" fill="white">35</text>
</g>
<!-- 41&#45;&gt;35 -->
<g id="edge10" class="edge">
<title>41&#45;&gt;35</title>
<path fill="none" stroke="red" d="M202.4,-129.37C202.4,-122.3 202.4,-113.42 202.4,-105.17"/>
<polygon fill="red" stroke="red" points="205.9,-105.31 202.4,-95.31 198.9,-105.31 205.9,-105.31"/>
</g>
<!-- ovihpeydmsiugzaytcer -->
<g id="node14" class="node">
<title>ovihpeydmsiugzaytcer</title>
<ellipse fill="none" stroke="white" cx="249.4" cy="-79.2" rx="14.4" ry="14.4"/>
</g>
<!-- 41&#45;&gt;ovihpeydmsiugzaytcer -->
<g id="edge13" class="edge">
<title>41&#45;&gt;ovihpeydmsiugzaytcer</title>
<path fill="none" stroke="black" d="M210.8,-131.77C217.29,-123.11 226.43,-110.9 234.19,-100.53"/>
<polygon fill="black" stroke="black" points="236.97,-102.65 240.16,-92.54 231.37,-98.45 236.97,-102.65"/>
</g>
<!-- fidweetmpnfdqysrzjon -->
<g id="node12" class="node">
<title>fidweetmpnfdqysrzjon</title>
<ellipse fill="none" stroke="white" cx="202.4" cy="-14.4" rx="14.4" ry="14.4"/>
</g>
<!-- 35&#45;&gt;fidweetmpnfdqysrzjon -->
<g id="edge11" class="edge">
<title>35&#45;&gt;fidweetmpnfdqysrzjon</title>
<path fill="none" stroke="black" d="M202.4,-64.57C202.4,-57.5 202.4,-48.62 202.4,-40.37"/>
<polygon fill="black" stroke="black" points="205.9,-40.51 202.4,-30.51 198.9,-40.51 205.9,-40.51"/>
</g>
<!-- phzobhmvcvievtiuftzo -->
<g id="node13" class="node">
<title>phzobhmvcvievtiuftzo</title>
<ellipse fill="none" stroke="white" cx="249.4" cy="-14.4" rx="14.4" ry="14.4"/>
</g>
<!-- 35&#45;&gt;phzobhmvcvievtiuftzo -->
<g id="edge12" class="edge">
<title>35&#45;&gt;phzobhmvcvievtiuftzo</title>
<path fill="none" stroke="black" d="M210.8,-66.97C217.29,-58.31 226.43,-46.1 234.19,-35.73"/>
<polygon fill="black" stroke="black" points="236.97,-37.85 240.16,-27.74 231.37,-33.65 236.97,-37.85"/>
</g>
</g>
</svg>
